<?xml version="1.0" standalone="no"?><!DOCTYPE svg PUBLIC "-//W3C//DTD SVG 1.1//EN" "http://www.w3.org/Graphics/SVG/1.1/DTD/svg11.dtd"><svg t="1770618387228" class="icon" viewBox="0 0 1024 1024" version="1.1" xmlns="http://www.w3.org/2000/svg" p-id="10229" xmlns:xlink="http://www.w3.org/1999/xlink" width="200" height="200"><path d="M0 512C0 229.218 229.18 0 512 0c282.782 0 512 229.18 512 512 0 282.782-229.18 512-512 512C229.218 1024 0 794.82 0 512z m707.033-34.265c-36.904-27.569-87.907-60.258-142.021-91.057-54.627-31.114-108.308-57.895-150.056-74.83-20.125-8.153-36.864-13.785-48.955-16.463-16.147 54.075-14.73 373.76 0.473 433.23a382.582 382.582 0 0 0 46.08-16.187c41.905-17.171 95.94-44.11 150.685-74.87 54.863-30.877 106.26-63.33 143.36-90.663 18.157-13.391 32.375-25.128 41.709-34.462a381.243 381.243 0 0 0-41.275-34.658z" fill="#46CA81" p-id="10230"></path></svg>