<?xml version="1.0" standalone="no"?><!DOCTYPE svg PUBLIC "-//W3C//DTD SVG 1.1//EN" "http://www.w3.org/Graphics/SVG/1.1/DTD/svg11.dtd"><svg t="1770618537469" class="icon" viewBox="0 0 1024 1024" version="1.1" xmlns="http://www.w3.org/2000/svg" p-id="28115" xmlns:xlink="http://www.w3.org/1999/xlink" width="200" height="200"><path d="M932 420.8l-76.8-17.28c-5.76-19.2-13.92-37.44-23.04-55.2l41.76-69.6c15.36-24.96 23.52-61.44 0-84.96l-42.24-42.24c-11.52-11.04-26.4-16.8-42.24-16.32-15.84 0-32.16 5.28-44.64 13.44l-67.68 43.2c-17.76-9.12-36-16.8-54.72-23.04l-17.28-77.76C599.84 62.72 574.88 32 541.76 32H481.76c-33.12 0-53.28 31.2-60 60l-19.2 76.8c-20.16 6.24-39.84 14.88-58.56 24.48l-69.12-44.16c-12.96-8.64-28.8-13.44-44.64-13.44-15.84-0.48-30.72 5.28-42.24 16.32l-42.24 42.24c-23.52 23.52-15.36 60 0 84.96l43.68 72.96c-8.16 16.8-15.36 33.6-21.12 51.36l-76.8 17.28C62.72 426.08 32 451.04 32 484.16v60c0 33.12 31.2 53.28 60 60l77.76 19.2c5.28 16.32 12 32.16 19.68 48l-43.68 72.96c-15.36 24.96-23.52 61.44 0 84.96l42.24 42.24c11.52 11.52 26.88 16.32 42.24 16.32 15.84 0 32.16-5.28 44.64-13.44l69.12-44.16c18.72 10.08 38.4 18.24 58.56 24.48l19.2 76.8c6.72 28.8 26.88 60 60 60h60c33.12 0 58.08-30.72 63.36-59.52l17.28-78.24c18.72-6.24 36.96-13.92 54.24-22.56l67.68 43.2c12 8.16 28.32 13.44 44.64 13.44 15.84 0.48 31.2-5.28 42.24-16.32l42.24-42.24c23.52-23.52 15.36-60 0-84.96l-41.76-69.6c8.16-16.32 15.84-33.6 21.6-51.36l77.76-19.2c28.8-6.72 60-26.88 60-60V484.16c0.48-33.12-30.72-58.08-59.04-63.36z m-419.52 236.16c-80.16 0-144.96-64.8-144.96-144.48 0-80.16 64.8-144.96 144.96-144.96s144.96 64.8 144.96 144.96c0 79.68-64.8 144.48-144.96 144.48z" fill="#FF9900" p-id="28116"></path></svg>