<?xml version="1.0" standalone="no"?><!DOCTYPE svg PUBLIC "-//W3C//DTD SVG 1.1//EN" "http://www.w3.org/Graphics/SVG/1.1/DTD/svg11.dtd"><svg t="1770620403651" class="icon" viewBox="0 0 1024 1024" version="1.1" xmlns="http://www.w3.org/2000/svg" p-id="6408" xmlns:xlink="http://www.w3.org/1999/xlink" width="200" height="200"><path d="M781.786206 925.743288a48.781682 48.781682 0 1 0-4.093568-97.3928 48.781682 48.781682 0 0 0 4.093568 97.3928z m-139.863564 0h-593.055626a48.781682 48.781682 0 0 1 0-97.478082h593.140908a146.259764 146.259764 0 0 1 275.633561 0h57.139383a48.781682 48.781682 0 0 1 0 97.478082h-57.139383a146.259764 146.259764 0 0 1-275.633561 0z m7.675439-730.872407a146.259764 146.259764 0 0 1-275.633561 0h-325.097504a48.781682 48.781682 0 0 1 0-97.392799h325.182787a146.174481 146.174481 0 0 1 275.633561 0h325.182787a48.781682 48.781682 0 0 1 0 97.478082h-325.182787z m-403.642835 365.436203a48.781682 48.781682 0 1 0-4.093568-97.392799 48.781682 48.781682 0 0 0 4.093568 97.392799z m136.793388-97.392799h592.117517a48.611117 48.611117 0 1 1 0 97.392799h-593.311474a146.259764 146.259764 0 0 1-275.633561 0h-57.139383a48.611117 48.611117 0 1 1 0-97.392799h56.030708a146.174481 146.174481 0 0 1 278.021476 0z m80.42155-316.739804a48.611117 48.611117 0 0 0 97.392799 0 48.611117 48.611117 0 0 0-97.392799 0z" fill="#155dfc" p-id="6409"></path></svg>