<?xml version="1.0" standalone="no"?><!DOCTYPE svg PUBLIC "-//W3C//DTD SVG 1.1//EN" "http://www.w3.org/Graphics/SVG/1.1/DTD/svg11.dtd"><svg t="1770619849965" class="icon" viewBox="0 0 1024 1024" version="1.1" xmlns="http://www.w3.org/2000/svg" p-id="70284" xmlns:xlink="http://www.w3.org/1999/xlink" width="200" height="200"><path d="M512 512m-512 0a512 512 0 1 0 1024 0 512 512 0 1 0-1024 0Z" fill="#155dfc" p-id="70285" data-spm-anchor-id="a313x.search_index.0.i18.31153a81zO0BBK" class="selected"></path><path d="M258.816 377.8048s51.0464-78.848 131.6864-121.0368c80.8448-42.24 180.224-30.1056 245.4016 10.8544 65.28 40.96 87.2448 75.5712 87.2448 75.5712l56.1152-32.0512s11.6224-5.7344 11.6224 7.68v201.0624s0 17.92-13.568 11.52c-11.3664-5.376-134.8096-75.5712-173.6704-97.6896-21.248-9.5744-2.56-17.2544-2.56-17.2544l54.272-31.0272s-30.976-38.7584-76.1856-59.2896c-48.4864-25.2416-93.7984-28.2624-149.3504-7.168-36.2496 13.6192-78.9504 48.64-109.6192 100.352L258.816 377.856z m503.6544 265.6768s-51.0464 78.6944-131.7376 120.9344c-80.6912 42.24-180.1216 30.1056-245.248-10.8544-65.3824-40.96-87.3472-75.5712-87.3472-75.5712l-56.1664 32s-11.52 5.7856-11.52-7.5776V501.248s0-17.92 13.568-11.52c11.3664 5.376 134.7584 75.5712 173.6704 97.7408 21.248 9.472 2.56 17.2544 2.56 17.2544l-54.272 31.0272s30.976 38.7072 76.1856 59.2384c48.4352 25.2416 93.7984 28.2112 149.2992 7.2192 36.2496-13.6192 78.9504-48.64 109.6192-100.4032l61.3888 41.5744v0.1024z" fill="#FFFFFF" p-id="70286"></path></svg>