<?xml version="1.0" standalone="no"?><!DOCTYPE svg PUBLIC "-//W3C//DTD SVG 1.1//EN" "http://www.w3.org/Graphics/SVG/1.1/DTD/svg11.dtd"><svg t="1774228493924" class="icon" viewBox="0 0 1088 1024" version="1.1" xmlns="http://www.w3.org/2000/svg" p-id="11497" xmlns:xlink="http://www.w3.org/1999/xlink" width="212.5" height="200"><path d="M512 128C300.16 128 128 300.288 128 512s172.224 384 384 384 384-172.224 384-384-172.224-384-384-384z m101.248 718.4c7.104-7.424 14.144-16 21.504-25.984l1.92-2.688c14.08-19.84 26.56-42.432 38.08-69.12l4.48-11.648 5.12 2.432c21.44 10.432 41.536 23.36 59.584 38.4l4.736 3.904-4.736 4.032a355.008 355.008 0 0 1-125.312 69.248l-19.2 5.952 13.824-14.528z m80.448-316.608a637.44 637.44 0 0 1-26.368 169.344l-1.6 5.248-5.248-1.984a423.616 423.616 0 0 0-131.008-25.152l-5.056-0.192V524.416h169.408l-0.128 5.376z m-36.032 197.888l-1.92 4.992c-30.72 78.08-75.2 126.592-125.056 136.512l-6.272 1.216v-168.512l5.44 0.32a398.912 398.912 0 0 1 122.752 23.68l5.056 1.792z m86.272-481.472a299.648 299.648 0 0 1-59.52 38.4l-6.08 0.64-1.984-5.632-2.624-6.592a362.944 362.944 0 0 0-37.12-66.88l-1.92-2.56a245.12 245.12 0 0 0-21.44-25.92l-13.888-14.656 19.2 5.952c46.08 14.336 88.704 37.888 125.376 69.248l4.672 4.032-4.672 3.968zM660.48 321.6l5.248-1.92 1.6 5.248c15.744 51.136 24.896 109.696 26.368 169.28l0.128 5.376H524.48V346.944l5.056-0.192a424.32 424.32 0 0 0 130.944-25.152z m-136.064 0.448V153.6l6.272 1.152c49.92 9.92 94.272 58.496 125.056 136.64l1.92 4.928-4.992 1.856a400.448 400.448 0 0 1-122.752 23.68l-5.44 0.192z m242.048 442.88l-3.776-3.2a321.856 321.856 0 0 0-70.72-45.888l-4.288-2.048 3.008-8.64c8.576-27.264 15.296-56 19.968-85.376l1.6-11.648c1.6-11.712 2.944-23.488 3.968-35.072l1.024-13.312c0.512-7.168 0.704-14.656 0.896-21.824l0.384-13.44h152l-0.256 5.44a358.976 358.976 0 0 1-100.48 231.552l-3.328 3.456z m-50.24-313.984c-1.024-11.52-2.368-23.36-3.968-35.072l-1.6-11.584a591.36 591.36 0 0 0-20.16-86.144l-2.816-7.872 4.288-2.048c25.472-12.16 49.28-27.584 70.784-45.952l3.712-3.2 3.392 3.584a358.784 358.784 0 0 1 100.48 231.424l0.32 5.504h-152l-0.384-13.44a555.904 555.904 0 0 0-0.896-21.824l-1.152-13.376z m-305.536-273.28c-7.68 8.192-14.848 16.832-21.44 25.984l-1.92 2.56a362.24 362.24 0 0 0-37.056 66.816l-5.504 14.08-5.12-2.432a296.832 296.832 0 0 1-59.52-38.4l-4.736-4.032 4.736-4.032a354.56 354.56 0 0 1 125.312-69.184l19.2-6.016-13.888 14.656zM330.368 494.208c1.472-59.52 10.624-118.08 26.432-169.344l1.536-5.248 5.248 1.92a423.616 423.616 0 0 0 131.008 25.216l5.056 0.128v152.64H330.176l0.128-5.312z m36.032-197.888l1.92-4.928c30.784-78.08 75.2-126.656 125.056-136.576l6.272-1.216v168.512l-5.44-0.256a399.872 399.872 0 0 1-122.816-23.68l-4.992-1.856z m-86.208 481.472c18.24-15.104 38.208-27.968 59.52-38.272l6.72 1.984 3.904 9.536c10.56 24.576 23.104 47.104 37.12 66.816l1.92 2.56c2.112 3.008 4.416 5.184 6.592 8 2.88 3.712 5.824 7.232 8.768 10.624 1.984 2.368 4.032 5.184 6.08 7.36l13.952 14.528-19.264-5.952a355.776 355.776 0 0 1-125.376-69.184l-4.736-4.032 4.8-3.968z m83.392-75.392l-5.248 1.984-1.536-5.248a637.568 637.568 0 0 1-26.432-169.344l-0.128-5.376h169.344v152.64l-5.056 0.192c-46.72 1.792-90.752 10.24-130.944 25.152z m136.064-0.512V870.4l-6.272-1.216c-49.92-9.92-94.336-58.432-125.056-136.512l-1.92-4.992 4.992-1.856a400.256 400.256 0 0 1 122.816-23.68l5.44-0.256zM311.808 415.872c-1.664 11.52-2.944 23.296-4.16 36.928l-0.896 11.392c-0.512 7.744-0.768 15.552-1.024 24.192l-0.32 11.136H153.408l0.256-5.504a358.592 358.592 0 0 1 100.48-231.488l3.392-3.456 3.712 3.2c21.504 18.304 45.248 33.728 70.72 45.824l2.88 6.144-1.536 4.544a589.952 589.952 0 0 0-19.968 85.504l-1.536 11.584z m0 192.192l1.536 11.648c4.736 29.76 11.52 58.56 20.032 85.44l2.88 8.64-4.16 1.984a325.504 325.504 0 0 0-70.848 45.952l-3.712 3.2-3.392-3.584a358.848 358.848 0 0 1-100.48-231.488l-0.256-5.44h152.064l0.32 11.072c0.192 8.64 0.448 16.448 0.96 24.192l1.088 13.312c1.024 12.096 2.368 23.872 3.968 35.136z" fill="#155dfc" p-id="11498"></path></svg>