<?xml version="1.0" standalone="no"?><!DOCTYPE svg PUBLIC "-//W3C//DTD SVG 1.1//EN" "http://www.w3.org/Graphics/SVG/1.1/DTD/svg11.dtd"><svg t="1770027045384" class="icon" viewBox="0 0 1024 1024" version="1.1" xmlns="http://www.w3.org/2000/svg" p-id="40252" xmlns:xlink="http://www.w3.org/1999/xlink" width="200" height="200"><path d="M241.774301 2.296536a166.371252 166.371252 0 0 0-166.371252 166.371252v688.960705a166.371252 166.371252 0 0 0 166.371252 166.371252h518.506724a166.116081 166.116081 0 0 0 166.371251-166.371252v-512.89297a64.302999 64.302999 0 0 0-18.372285-44.910031L629.12332 20.923992a63.282317 63.282317 0 0 0-44.654861-18.627456z" fill="#FF803F" p-id="40253"></path><path d="M908.279991 299.825492L629.12332 20.923992a61.751293 61.751293 0 0 0-32.40667-17.096433 6.124095 6.124095 0 0 0-8.165461 6.379266v134.985264a194.440021 194.440021 0 0 0 194.440022 194.440022H920.273011a6.634436 6.634436 0 0 0 5.103412-7.91029 64.55817 64.55817 0 0 0-17.096432-31.896329z" fill="#F3671E" p-id="40254"></path><path d="M790.9015 308.246123h124.268098a100.026888 100.026888 0 0 0-6.889607-8.420631L629.12332 20.923992a43.379007 43.379007 0 0 0-8.420631-6.889607v124.012927a170.198811 170.198811 0 0 0 170.198811 170.198811z" fill="#FECEB4" p-id="40255"></path><path d="M696.233196 644.816186a194.184851 194.184851 0 0 1-112.785419-45.675543 1105.909518 1105.909518 0 0 0-180.915978 57.923734c-47.206567 82.930455-91.351086 126.309463-129.37151 126.309462a39.806619 39.806619 0 0 1-22.965357-6.124095 44.39969 44.39969 0 0 1-25.517063-41.082472c0-13.524043 3.062048-51.034126 147.488625-114.061272A1077.840748 1077.840748 0 0 0 452.545243 433.790074c-18.117115-36.4894-57.668563-127.585316-30.365305-171.985006a48.48242 48.48242 0 0 1 47.206567-25.517063 51.034126 51.034126 0 0 1 39.551447 19.903309c19.903309 27.303258 18.372285 85.226991-7.655119 170.453982a470.024304 470.024304 0 0 0 94.413134 121.716391A510.341263 510.341263 0 0 1 690.619442 538.410033c71.447777 1.531024 82.164943 34.958377 80.63392 54.861686 0 51.034126-51.034126 51.034126-76.55119 51.034126zM270.098241 739.994832l4.593072-1.531024a96.96484 96.96484 0 0 0 51.034126-42.613495A120.695709 120.695709 0 0 0 270.098241 739.994832z m202.350311-456.50026h-4.593071a9.186143 9.186143 0 0 0-6.124095 1.531024 123.502586 123.502586 0 0 0 9.186142 76.551189 127.585316 127.585316 0 0 0 1.531024-79.102896z m10.717167 220.722596l-1.531024 3.062048-1.531024-1.531024c-13.779214 34.958377-29.089452 69.916753-45.675543 103.344106l3.062048-1.531024v3.062048a929.841782 929.841782 0 0 1 103.344105-30.365306l-1.531023-1.531023h4.593071a462.114014 462.114014 0 0 1-60.73061-74.509825zM690.619442 584.085576a171.219494 171.219494 0 0 0-39.551448 3.062047 120.440538 120.440538 0 0 0 45.675543 11.99302 70.682265 70.682265 0 0 0 30.365305-2.806877c0-4.593071-6.124095-12.24819-36.4894-12.24819z m0 0" fill="#FFFFFF" p-id="40256"></path></svg>