<?xml version="1.0" standalone="no"?><!DOCTYPE svg PUBLIC "-//W3C//DTD SVG 1.1//EN" "http://www.w3.org/Graphics/SVG/1.1/DTD/svg11.dtd"><svg t="1770027850665" class="icon" viewBox="0 0 1024 1024" version="1.1" xmlns="http://www.w3.org/2000/svg" p-id="17011" xmlns:xlink="http://www.w3.org/1999/xlink" width="200" height="200"><path d="M925.098667 144.170667h-367.829334V100.010667a15.274667 15.274667 0 0 0-5.888-11.776 17.706667 17.706667 0 0 0-11.776-2.944L68.821333 203.008a19.541333 19.541333 0 0 0-11.818666 14.72v617.941333a19.541333 19.541333 0 0 0 11.818666 14.805334l470.784 88.277333h2.944a10.794667 10.794667 0 0 0 8.832-2.944 15.274667 15.274667 0 0 0 5.888-11.776V879.786667h367.829334a13.909333 13.909333 0 0 0 14.72-14.72V158.890667a13.909333 13.909333 0 0 0-14.72-14.72z m-456.106667 256l-88.277333 264.832a16.170667 16.170667 0 0 1-14.72 8.832 19.541333 19.541333 0 0 1-14.72-11.776l-44.117334-161.834667c-2.944-11.776-23.552-11.776-29.44 0l-44.117333 161.834667c-2.944 5.888-5.888 11.776-14.72 11.776s-11.776-5.888-11.776-8.832L118.826667 400.170667a14.293333 14.293333 0 0 1 8.832-17.664h5.888a16.170667 16.170667 0 0 1 14.72 8.832l58.837333 173.610666a16.170667 16.170667 0 0 0 14.72 8.832 19.541333 19.541333 0 0 0 14.72-11.776l46.933333-170.666666c2.944-11.776 23.552-11.776 29.44 0l46.933334 170.666666c2.944 5.888 5.888 11.776 14.72 11.776a16.170667 16.170667 0 0 0 14.72-8.832l58.837333-173.610666a13.098667 13.098667 0 0 1 17.664-8.832 22.656 22.656 0 0 1 2.944 17.664z m441.344 450.304h-353.066667v-88.362667h279.552a14.72 14.72 0 1 0 0-29.44h-279.552v-88.277333h279.552a14.72 14.72 0 1 0 0-29.44h-279.552v-88.277334h279.552a14.72 14.72 0 1 0 0-29.44h-279.552V409.002667h279.552a14.72 14.72 0 1 0 0-29.44h-279.552V291.285333h279.552a14.72 14.72 0 1 0 0-29.44h-279.552V173.610667h353.066667v676.864z" fill="#347AEF" p-id="17012"></path></svg>