<?xml version="1.0" standalone="no"?><!DOCTYPE svg PUBLIC "-//W3C//DTD SVG 1.1//EN" "http://www.w3.org/Graphics/SVG/1.1/DTD/svg11.dtd"><svg t="1770025353999" class="icon" viewBox="0 0 1024 1024" version="1.1" xmlns="http://www.w3.org/2000/svg" p-id="23321" xmlns:xlink="http://www.w3.org/1999/xlink" width="200" height="200"><path d="M751.801 11.57H210.932a74.804 74.804 0 0 0-74.572 74.573v851.714a74.804 74.804 0 0 0 74.572 74.572h708.701a74.804 74.804 0 0 0 74.573-74.572V254.033z" fill="#E4F9F4" p-id="23322"></path><path d="M751.801 179.345a74.862 74.862 0 0 0 74.573 74.63h167.774L751.8 11.571z" fill="#6BDDC7" p-id="23323"></path><path d="M87.647 624.814h569.854q69.423 0 69.423 69.423v185.13q0 69.424-69.423 69.424H87.647q-69.423 0-69.423-69.424v-185.13q0-69.423 69.423-69.423z" fill="#38D6B8" p-id="23324"></path><path d="M159.732 925.303h19.381a18.513 18.513 0 0 0 14.984-6.249 25.976 25.976 0 0 0 5.265-17.355V700.023h24.472v201.502a50.621 50.621 0 0 1-10.761 34.712 38.704 38.704 0 0 1-30.546 12.265h-22.795z m39.63-296.266h24.819v24.703h-24.82z m60.167 70.986h24.472v248.305h-24.472z m43.158 171.997a42.696 42.696 0 0 1-21.058-23.141l2.372-36.91a48.076 48.076 0 0 0 5.438 22.215 44.72 44.72 0 0 0 15.62 17.356 43.043 43.043 0 0 0 23.836 6.653 43.968 43.968 0 0 0 34.191-13.538 52.762 52.762 0 0 0 12.034-36.968v-38.24a54.266 54.266 0 0 0-12.034-37.663 43.68 43.68 0 0 0-34.191-13.364 43.448 43.448 0 0 0-23.836 6.537 44.778 44.778 0 0 0-15.62 16.951 46.282 46.282 0 0 0-5.438 21.753l-3.587-34.018a56.002 56.002 0 0 1 24.414-24.703 78.102 78.102 0 0 1 35.464-7.579 58.952 58.952 0 0 1 32.05 8.447 52.704 52.704 0 0 1 20.307 24.587 97.367 97.367 0 0 1 7 39.051v38.473a93.144 93.144 0 0 1-7.174 38.414 53.225 53.225 0 0 1-20.884 24.414 62.192 62.192 0 0 1-33.035 8.389 80.994 80.994 0 0 1-35.869-7.348z m151.807-1.562a52.936 52.936 0 0 1-20.885-24.414 93.144 93.144 0 0 1-7.174-38.415v-38.183a97.367 97.367 0 0 1 7-38.935 52.704 52.704 0 0 1 20.307-24.703 58.779 58.779 0 0 1 32.05-8.389 78.275 78.275 0 0 1 35.754 7.405 56.002 56.002 0 0 1 24.414 24.704l-3.876 34.133a47.092 47.092 0 0 0-5.38-21.926 42.638 42.638 0 0 0-15.563-16.836 49.233 49.233 0 0 0-58.143 6.885 54.266 54.266 0 0 0-12.09 37.662v38.3a52.82 52.82 0 0 0 12.09 36.91 43.968 43.968 0 0 0 34.192 13.19 42.696 42.696 0 0 0 23.777-6.653 44.431 44.431 0 0 0 15.678-17.356 48.076 48.076 0 0 0 5.439-22.216l2.372 36.91a42.696 42.696 0 0 1-21.059 23.142 80.994 80.994 0 0 1-35.927 7.058 62.076 62.076 0 0 1-32.976-8.273z m16.141 77.639l-15.62-7.405a57.275 57.275 0 0 1-24.299-20.828l16.662-14.984a55.655 55.655 0 0 0 19.207 16.084 49.696 49.696 0 0 0 75.21-46.283V700.023h24.471v171.245a90.02 90.02 0 0 1-8.91 41.654 60.399 60.399 0 0 1-25.917 26.381 86.433 86.433 0 0 1-41.018 9.025z" fill="#FFFFFF" p-id="23325"></path><path d="M571.762 289.266a127.277 127.277 0 0 1-254.553 0c0-70.292 56.985-196.701 127.276-196.701s127.277 126.409 127.277 196.7z m-196.7 231.412h138.847v23.141H375.062z" fill="#6BDDC7" p-id="23326"></path><path d="M430.022 335.548h28.927v196.7h-28.927z" fill="#6BDDC7" p-id="23327"></path><path d="M457.04 306.621l69.423-80.994" fill="#38D6B8" p-id="23328"></path></svg>