<?xml version="1.0" standalone="no"?><!DOCTYPE svg PUBLIC "-//W3C//DTD SVG 1.1//EN" "http://www.w3.org/Graphics/SVG/1.1/DTD/svg11.dtd"><svg t="1770025238825" class="icon" viewBox="0 0 1024 1024" version="1.1" xmlns="http://www.w3.org/2000/svg" p-id="14901" xmlns:xlink="http://www.w3.org/1999/xlink" width="200" height="200"><path d="M192 64a64 64 0 0 0-64 64v768a64 64 0 0 0 64 64h640a64 64 0 0 0 64-64V352l-256-288H192z" fill="#B3E5E9" p-id="14902"></path><path d="M640 64l256 288h-192a64 64 0 0 1-64-64V64z" fill="#7DCED5" p-id="14903"></path><path d="M128 576h768v320a64 64 0 0 1-64 64H192a64 64 0 0 1-64-64V576zM300.768 348.608L192 299.584v-17.216l108.768-51.776v26.144L222.816 290.432v0.64l77.952 31.36v26.176zM439.264 192l-81.984 192h-31.456l81.632-192h31.808zM576 298.304l-108.768 49.024v-26.048l78.176-31.264v-0.512L467.2 255.68v-26.144L576 281.088v17.216z" fill="#11A0AD" p-id="14904"></path><path d="M282.656 787.904c0 24.512-5.6 43.328-16.832 56.448-11.168 13.12-27.2 19.648-48.064 19.648-9.28 0-17.856-1.6-25.76-4.8v-37.28c6.816 5.216 14.56 7.808 23.264 7.808 18.816 0 28.224-14.4 28.224-43.264v-111.36h39.168v112.8zM315.072 814.016c14.784 12.384 31.584 18.56 50.432 18.56 10.688 0 18.72-1.824 24.096-5.504 5.376-3.744 8.064-8.544 8.064-14.368a20.48 20.48 0 0 0-6.4-14.272c-4.288-4.48-15.552-10.56-33.824-18.208-28.736-12.32-43.104-30.208-43.104-53.696 0-17.28 6.496-30.624 19.488-40.16 13.056-9.6 30.304-14.368 51.744-14.368 17.92 0 33.024 2.368 45.184 7.072v37.152c-12.32-8.48-26.752-12.704-43.296-12.704-9.664 0-17.376 1.792-23.136 5.408-5.76 3.52-8.672 8.256-8.672 14.24 0 4.8 1.984 9.248 5.92 13.312 3.968 4 13.76 9.44 29.344 16.32 18.24 7.904 30.784 16.256 37.6 25.024 6.88 8.8 10.336 19.264 10.336 31.392 0 17.824-6.272 31.424-18.752 40.768-12.48 9.344-30.272 14.016-53.28 14.016-21.056 0-38.304-3.424-51.744-10.304v-39.68zM458.176 770.4c0-29.088 8.384-52.736 25.152-70.944 16.864-18.304 39.104-27.456 66.72-27.456 26.24 0 47.36 8.832 63.36 26.496 16.064 17.664 24.096 40.32 24.096 68.064 0 28.928-8.352 52.416-25.056 70.464-16.608 17.984-38.4 26.976-65.376 26.976-26.336 0-47.744-8.704-64.192-26.144-16.48-17.472-24.704-40-24.704-67.456z m41.184-2.144c0 18.048 4.32 32.832 12.928 44.32 8.64 11.424 20.48 17.152 35.52 17.152 15.328 0 27.264-5.472 35.84-16.416 8.512-11.04 12.8-25.824 12.8-44.352 0-19.328-4.16-34.592-12.48-45.76-8.32-11.296-20-16.928-35.136-16.928-15.36 0-27.424 5.76-36.288 17.28-8.8 11.488-13.184 26.4-13.184 44.672zM832 860.768h-40.096l-77.856-120.096a141.696 141.696 0 0 1-8.8-15.104h-0.576c0.704 6.4 1.056 16.256 1.056 29.6v105.6h-37.12v-185.664h42.688l75.008 116.736c4.992 7.744 8.032 12.672 9.152 14.752h0.576c-0.768-4.48-1.184-13.024-1.184-25.664v-105.824H832V860.8z" fill="#FFFFFF" p-id="14905"></path></svg>