<?xml version="1.0" standalone="no"?><!DOCTYPE svg PUBLIC "-//W3C//DTD SVG 1.1//EN" "http://www.w3.org/Graphics/SVG/1.1/DTD/svg11.dtd"><svg t="1770025931682" class="icon" viewBox="0 0 1024 1024" version="1.1" xmlns="http://www.w3.org/2000/svg" p-id="58461" xmlns:xlink="http://www.w3.org/1999/xlink" width="200" height="200"><path d="M252.698413 7.111111A165.587302 165.587302 0 0 0 87.111111 172.698413v685.714285a165.587302 165.587302 0 0 0 165.587302 165.587302h516.31746a165.587302 165.587302 0 0 0 165.587302-165.587302V347.936508a62.984127 62.984127 0 0 0-18.539683-43.174603L638.984127 25.396825a61.968254 61.968254 0 0 0-45.206349-18.285714z" fill="#FF803F" p-id="58462"></path><path d="M916.063492 304.761905L638.984127 25.396825a61.460317 61.460317 0 0 0-33.015873-16.761904 6.095238 6.095238 0 0 0-7.111111 6.349206v134.349206A193.52381 193.52381 0 0 0 791.365079 342.857143h134.349207a6.349206 6.349206 0 0 0 6.349206-7.111111 63.238095 63.238095 0 0 0-16-30.984127z" fill="#F3671E" p-id="58463"></path><path d="M799.492063 311.873016h123.428572a54.857143 54.857143 0 0 0-6.857143-8.380953L638.984127 25.396825a54.857143 54.857143 0 0 0-8.380952-6.857142V142.222222a169.650794 169.650794 0 0 0 168.888888 169.650794z" fill="#FECEB4" p-id="58464"></path><path d="M330.666667 626.793651a91.936508 91.936508 0 0 1-28.190477-71.111111 94.222222 94.222222 0 0 1 28.698413-71.873016 97.777778 97.777778 0 0 1 69.587302-25.396826 88.634921 88.634921 0 0 1 63.238095 23.873016l-21.84127 23.619048a58.666667 58.666667 0 0 0-40.126984-15.492064A53.587302 53.587302 0 0 0 359.619048 507.936508a67.555556 67.555556 0 0 0-16.253969 47.238095A68.063492 68.063492 0 0 0 359.619048 601.904762a58.920635 58.920635 0 0 0 45.460317 17.269841 42.412698 42.412698 0 0 0 25.396825-6.857143v-36.825397h-36.063492v-30.47619h72.634921v84.063492a95.746032 95.746032 0 0 1-66.285714 22.349206 98.793651 98.793651 0 0 1-70.095238-24.63492zM512 461.714286h40.888889v186.15873H512zM602.666667 461.714286h126.984127v30.984127h-86.095238v48.507936h72.888888v31.238095h-72.888888v76.190477h-40.888889z" fill="#F5F6FA" p-id="58465"></path></svg>