<?xml version="1.0" standalone="no"?><!DOCTYPE svg PUBLIC "-//W3C//DTD SVG 1.1//EN" "http://www.w3.org/Graphics/SVG/1.1/DTD/svg11.dtd"><svg t="1770025568045" class="icon" viewBox="0 0 1024 1024" version="1.1" xmlns="http://www.w3.org/2000/svg" p-id="45614" xmlns:xlink="http://www.w3.org/1999/xlink" width="200" height="200"><path d="M512 0C229.23 0 0 229.23 0 512s229.23 512 512 512 512-229.23 512-512S794.77 0 512 0z m422.86 527H815.11l-22.86 45.55a15 15 0 0 1-27.44-1.43l-34.66-91.76-50.84 186.42A15 15 0 0 1 650 664l-33.17-229.93L526.66 848A15 15 0 0 1 512 859.85c-0.43 0-0.86 0-1.3-0.05a15 15 0 0 1-13.7-14.31l-25.06-585.64-77.45 369.06a15 15 0 0 1-29.59-1.44l-24.62-223.75-42 148.2a15 15 0 0 1-29-0.66l-24.75-104.82-15.69 42a15 15 0 0 1-14.05 9.75h-117a15 15 0 1 1 0-30h106.6l29.36-78.66a15 15 0 0 1 28.65 1.81l22.76 96.73 47.22-166.39a15 15 0 0 1 29.34 2.45l22.73 206.58 82.7-394a15 15 0 0 1 29.66 2.44L522 728.34l83.14-381.73a15 15 0 0 1 29.51 1.05l34.72 240.54 44-161.34a15 15 0 0 1 28.5-1.35l38.91 103 11.66-23.24a15 15 0 0 1 13.41-8.27h129a15 15 0 1 1 0 30z" fill="#1891FF" p-id="45615"></path></svg>