<?xml version="1.0" standalone="no"?><!DOCTYPE svg PUBLIC "-//W3C//DTD SVG 1.1//EN" "http://www.w3.org/Graphics/SVG/1.1/DTD/svg11.dtd"><svg t="1770025667233" class="icon" viewBox="0 0 1024 1024" version="1.1" xmlns="http://www.w3.org/2000/svg" p-id="53041" xmlns:xlink="http://www.w3.org/1999/xlink" width="200" height="200"><path d="M153.6 179.2m102.4 0l614.4 0q102.4 0 102.4 102.4l0 563.2q0 102.4-102.4 102.4l-614.4 0q-102.4 0-102.4-102.4l0-563.2q0-102.4 102.4-102.4Z" fill="#DECC98" p-id="53042"></path><path d="M25.6 51.2m102.4 0l614.4 0q102.4 0 102.4 102.4l0 563.2q0 102.4-102.4 102.4l-614.4 0q-102.4 0-102.4-102.4l0-563.2q0-102.4 102.4-102.4Z" fill="#7C652F" p-id="53043"></path><path d="M582.4512 456.4992l-235.4432 156.9792A25.6 25.6 0 0 1 307.2 592.128V278.272a25.6 25.6 0 0 1 39.808-21.3248l235.4432 156.9792a25.6 25.6 0 0 1 0 42.5984zM102.4 153.6h51.2v51.2H102.4zM102.4 281.6h51.2v51.2H102.4zM102.4 409.6h51.2v51.2H102.4zM102.4 537.6h51.2v51.2H102.4zM102.4 665.6h51.2v51.2H102.4zM716.8 153.6h51.2v51.2h-51.2zM716.8 281.6h51.2v51.2h-51.2zM716.8 409.6h51.2v51.2h-51.2zM716.8 537.6h51.2v51.2h-51.2zM716.8 665.6h51.2v51.2h-51.2z" fill="#F7E6B2" p-id="53044"></path></svg>