<?xml version="1.0" standalone="no"?><!DOCTYPE svg PUBLIC "-//W3C//DTD SVG 1.1//EN" "http://www.w3.org/Graphics/SVG/1.1/DTD/svg11.dtd"><svg t="1770029009749" class="icon" viewBox="0 0 1024 1024" version="1.1" xmlns="http://www.w3.org/2000/svg" p-id="53326" xmlns:xlink="http://www.w3.org/1999/xlink" width="200" height="200"><path d="M0 0h1024v1024H0z" fill="#D8D8D8" fill-opacity="0" p-id="53327"></path><path d="M185.308 801.05L43.318 416.912c-2.815-7.615 1.076-16.07 8.691-18.885a14.7 14.7 0 0 1 5.097-0.912H313.32l40.2-142.777a23.1 23.1 0 0 1 22.235-16.84h144.723L541.42 202h112.073l12.877 35.5h298.062c9.858 0 17.85 7.99 17.85 17.85a17.85 17.85 0 0 1-0.668 4.836l-149.186 529.9C826.947 809.552 809.19 823 788.967 823H216.824a33.6 33.6 0 0 1-31.516-21.95z" fill="#C5C5C5" fill-opacity=".461" p-id="53328"></path><path d="M652.853 202l12.861 35.5H986.95L822.314 823 677.659 431.175c-7.557-20.47-27.036-34.059-48.82-34.059h-315.74l44.885-159.617h162.018L540.918 202h111.935z" fill="#ABABAB" fill-opacity=".574" p-id="53329"></path></svg>