<?xml version="1.0" standalone="no"?><!DOCTYPE svg PUBLIC "-//W3C//DTD SVG 1.1//EN" "http://www.w3.org/Graphics/SVG/1.1/DTD/svg11.dtd"><svg t="1770027660498" class="icon" viewBox="0 0 1024 1024" version="1.1" xmlns="http://www.w3.org/2000/svg" p-id="6955" xmlns:xlink="http://www.w3.org/1999/xlink" width="200" height="200"><path d="M563.2 870.4V153.6h435.2v716.8H563.2z m153.6-563.2c-71.68 0-128 56.32-128 128s56.32 128 128 128 128-56.32 128-128h-128v-128z m25.6-25.6v128h128c0-71.68-56.32-128-128-128zM896 640H588.8v51.2H896V640z m0 102.4H588.8v51.2H896v-51.2zM0 153.6L537.6 0v998.4L0 844.8V153.6z m179.2 537.6h51.2V537.6h28.16c71.68 0 125.44-46.08 125.44-102.4s-53.76-102.4-125.44-102.4H179.2v358.4z m153.6-256c0 28.16-28.16 51.2-71.68 51.2H230.4V384h30.72c43.52 0 71.68 23.04 71.68 51.2z" fill="#DE5C2A" p-id="6956"></path></svg>