<?xml version="1.0" standalone="no"?><!DOCTYPE svg PUBLIC "-//W3C//DTD SVG 1.1//EN" "http://www.w3.org/Graphics/SVG/1.1/DTD/svg11.dtd"><svg t="1770025260478" class="icon" viewBox="0 0 1024 1024" version="1.1" xmlns="http://www.w3.org/2000/svg" p-id="17035" xmlns:xlink="http://www.w3.org/1999/xlink" width="200" height="200"><path d="M136.533333 0C123.733333 0 110.08 5.12 100.693333 15.36 91.306667 25.6 85.333333 38.4 85.333333 51.2v921.6c0 12.8 5.12 26.453333 15.36 35.84 10.24 10.24 23.04 15.36 35.84 15.36h750.933334c12.8 0 26.453333-5.12 35.84-15.36 10.24-10.24 15.36-23.04 15.36-35.84v-682.666667L648.533333 0h-512z" fill="#7BC239" p-id="17036"></path><path d="M937.130667 290.133333h-238.933334c-12.8 0-26.453333-5.12-35.84-15.36a49.066667 49.066667 0 0 1-15.36-35.84V0l290.133334 290.133333z" fill="#B0E480" p-id="17037"></path><path d="M311.424 407.594667h60.757333v60.757333H311.424V407.594667z m60.885333-60.8H433.066667v60.8H372.309333V346.794667z m0-121.685334H433.066667v60.8H372.309333V225.109333zM311.424 285.909333h60.757333v60.757334H311.424V285.909333z m0-121.685333h60.757333v60.757333H311.424V164.266667z m60.885333-60.8H433.066667V164.266667H372.309333V103.424zM311.424 42.666667h60.757333v60.885333H311.424V42.666667z" fill="#FFFFFF" p-id="17038"></path><path d="M293.76 554.752H453.546667v27.776L330.496 738.133333h130.218667v29.866667H284.8v-27.477333l123.349333-155.904H293.76v-29.866667z m195.328 0h34.944V768h-34.944v-213.248z m76.757333 0h88.405334c51.370667 0 77.354667 21.802667 77.354666 65.408 0 43.904-25.984 66.005333-77.952 66.005333h-52.864V768h-34.944v-213.248z m34.944 29.866667v71.68h50.773334c15.530667 0 26.88-2.986667 34.048-8.362667 7.168-5.674667 10.752-14.933333 10.752-27.776 0-12.842667-3.882667-21.802667-11.050667-27.178667-7.168-5.674667-18.517333-8.362667-33.749333-8.362666h-50.773334z" fill="#FFFFFF" p-id="17039"></path></svg>