<?xml version="1.0" standalone="no"?><!DOCTYPE svg PUBLIC "-//W3C//DTD SVG 1.1//EN" "http://www.w3.org/Graphics/SVG/1.1/DTD/svg11.dtd"><svg t="1770028802950" class="icon" viewBox="0 0 1024 1024" version="1.1" xmlns="http://www.w3.org/2000/svg" p-id="48803" xmlns:xlink="http://www.w3.org/1999/xlink" width="200" height="200"><path d="M256 85.333333h398.208l227.541333 227.541334v512A114.090667 114.090667 0 0 1 768 938.666667H256a114.133333 114.133333 0 0 1-113.792-113.792V199.125333A114.133333 114.133333 0 0 1 256 85.333333z" fill="#5D6E7F" p-id="48804"></path><path d="M654.208 85.333333l227.541333 227.541334h-170.666666A53.76 53.76 0 0 1 654.208 256z" fill="#E0E0E0" opacity=".619" p-id="48805"></path><path d="M633.728 476.416l-121.088 121.088-121.088-121.088a24.405333 24.405333 0 0 0-19.370667-7.04l-1.962666 0.298667a24.448 24.448 0 0 0-28.885334 24.064v244.778666a24.490667 24.490667 0 0 0 48.938667 0v-194.005333l105.045333 105.045333a24.448 24.448 0 0 0 31.232 2.816l3.413334-2.816 105.002666-105.045333v194.005333a24.490667 24.490667 0 1 0 48.938667 0v-244.650666a24.448 24.448 0 0 0-24.448-24.448l-4.266667 0.384-1.92-0.298667a24.405333 24.405333 0 0 0-19.541333 6.912z" fill="#FFFFFF" p-id="48806"></path></svg>