<?xml version="1.0" standalone="no"?><!DOCTYPE svg PUBLIC "-//W3C//DTD SVG 1.1//EN" "http://www.w3.org/Graphics/SVG/1.1/DTD/svg11.dtd"><svg t="1770025309016" class="icon" viewBox="0 0 1024 1024" version="1.1" xmlns="http://www.w3.org/2000/svg" p-id="20218" xmlns:xlink="http://www.w3.org/1999/xlink" width="200" height="200"><path d="M136.106667 0C123.306667 0 109.653333 5.12 100.266667 15.36 90.88 25.6 84.906667 38.4 84.906667 51.2v921.6c0 12.8 5.12 26.453333 15.36 35.84 10.24 10.24 23.04 15.36 35.84 15.36h750.933333c12.8 0 26.453333-5.12 35.84-15.36 10.24-10.24 15.36-23.04 15.36-35.84v-682.666667L648.106667 0h-512z" fill="#FF9425" p-id="20219"></path><path d="M939.136 290.133333h-238.933333c-12.8 0-26.453333-5.12-35.84-15.36a49.066667 49.066667 0 0 1-15.36-35.84V0l290.133333 290.133333z" fill="#FFC284" p-id="20220"></path><path d="M212.906667 558.848h88.405333c51.370667 0 77.354667 21.802667 77.354667 65.408 0 43.904-25.984 66.005333-77.952 66.005333H247.850667v81.834667H212.906667v-213.248z m34.944 29.866667v71.68h50.773333c15.530667 0 26.88-2.986667 34.048-8.362667 7.168-5.674667 10.752-14.933333 10.752-27.776 0-12.842667-3.882667-21.802667-11.050667-27.178667-7.168-5.674667-18.517333-8.362667-33.749333-8.362666h-50.773333z m160.682666-29.866667h34.944l105.429334 153.813333h1.194666v-153.813333h35.242667v213.248h-34.048l-106.624-155.904h-1.194667v155.904h-34.944v-213.248zM719.744 554.666667c27.477333 0 48.981333 5.973333 64.810667 18.218666 15.232 11.946667 24.789333 29.568 28.672 53.461334h-35.242667c-2.986667-13.738667-9.557333-23.893333-19.114667-30.762667-9.856-6.869333-22.997333-10.154667-39.125333-10.154667-20.010667 0-35.84 6.570667-47.488 20.309334-12.842667 14.336-19.114667 34.346667-19.114667 60.629333 0 25.088 5.674667 44.501333 17.024 57.941333 12.245333 14.336 31.36 21.504 57.344 21.504a110.933333 110.933333 0 0 0 28.672-3.584c8.362667-2.389333 15.829333-5.674667 22.997334-9.856v-43.904h-56.448v-29.866666h91.392v90.197333c-11.349333 8.96-24.192 15.530667-38.826667 20.309333a174.250667 174.250667 0 0 1-51.669333 7.168c-34.048 0-60.330667-10.752-79.146667-32.256-17.621333-20.010667-26.282667-45.994667-26.282667-77.653333 0-31.957333 8.661333-58.24 26.282667-78.848 18.517333-22.101333 43.605333-32.853333 75.264-32.853333z" fill="#FFFFFF" p-id="20221"></path></svg>