<svg viewBox="0 0 900 240" xmlns="http://www.w3.org/2000/svg" preserveAspectRatio="none">
  <defs>
    <radialGradient id="C_fog" cx="20%" cy="50%" r="50%">
      <stop offset="0%" stop-color="#F2F5FF" stop-opacity="1" />
      <stop offset="100%" stop-color="#F2F5FF" stop-opacity="0" />
    </radialGradient>
    <radialGradient id="C_gR" cx="70%" cy="40%" r="55%">
      <stop offset="0%" stop-color="#C8DEFF" stop-opacity="0.8" />
      <stop offset="100%" stop-color="#EEF3FF" stop-opacity="0" />
    </radialGradient>
    <radialGradient id="C_gP" cx="90%" cy="75%" r="40%">
      <stop offset="0%" stop-color="#D8C8FF" stop-opacity="0.65" />
      <stop offset="100%" stop-color="#EEF3FF" stop-opacity="0" />
    </radialGradient>
  </defs>
  <rect width="900" height="240" fill="#EEF3FF" />
  <rect width="900" height="240" fill="url(#C_gR)" />
  <rect width="900" height="240" fill="url(#C_gP)" />
  <g fill="none">
    <path d="M420,220 Q480,180 540,190 Q600,200 660,160 Q720,120 780,140 Q840,160 900,120" stroke="#8AACEE" stroke-width="1" opacity="0.35" />
    <path d="M420,200 Q490,155 560,170 Q630,185 700,145 Q780,100 900,110" stroke="#9A8EE8" stroke-width="0.8" opacity="0.28" />
    <path d="M420,240 Q500,195 580,205 Q660,215 740,175 Q820,140 900,155" stroke="#8AACEE" stroke-width="0.7" opacity="0.22" />
    <path d="M420,170 Q500,130 580,145 Q650,160 730,115 Q810,70 900,85" stroke="#7AC0D8" stroke-width="1" opacity="0.3" />
    <path d="M420,150 Q510,105 600,118 Q680,130 760,88 Q840,50 900,62" stroke="#9A8EE8" stroke-width="0.7" opacity="0.25" />
    <path d="M550,240 Q600,210 660,220 Q720,228 790,200 Q860,175 900,185" stroke="#8AACEE" stroke-width="0.5" opacity="0.2" />
    <path d="M480,60 Q550,30 630,45 Q710,60 790,30 Q850,10 900,20" stroke="#9AAAD0" stroke-width="0.6" opacity="0.2" />
  </g>
  <g fill="#8AACEE" opacity="0.5">
    <circle cx="540" cy="190" r="3" />
    <circle cx="620" cy="172" r="2.5" />
    <circle cx="700" cy="148" r="3.5" />
    <circle cx="780" cy="138" r="2.5" />
    <circle cx="848" cy="130" r="2" />
  </g>
  <g fill="#9A8EE8" opacity="0.45">
    <circle cx="580" cy="145" r="3" />
    <circle cx="660" cy="128" r="2.5" />
    <circle cx="740" cy="108" r="3" />
    <circle cx="820" cy="80" r="2" />
  </g>
  <g font-size="11" fill="#8AAAD0" opacity="0.3" font-family="monospace">
    <text x="820" y="30">0xA3F</text>
    <text x="750" y="58">SUM</text>
    <text x="860" y="70">101</text>
    <text x="800" y="95">DTH</text>
    <text x="720" y="25">AI</text>
    <text x="870" y="48">fn()</text>
    <text x="650" y="18">INF</text>
  </g>
  <ellipse cx="830" cy="115" rx="60" ry="55" fill="#C0D4FF" opacity="0.18" />
  <ellipse cx="830" cy="115" rx="35" ry="30" fill="#C8C0FF" opacity="0.2" />
  <circle cx="830" cy="115" r="14" fill="#B8C8FF" opacity="0.5" stroke="#8AACEE" stroke-width="1" />
  <circle cx="830" cy="115" r="6" fill="#8AACEE" opacity="0.6" />
  <g stroke="#8AACEE" stroke-width="0.7" opacity="0.3">
    <line x1="780" y1="138" x2="816" y2="122" />
    <line x1="700" y1="148" x2="816" y2="118" />
    <line x1="780" y1="88" x2="818" y2="106" />
    <line x1="700" y1="108" x2="816" y2="110" />
  </g>
  <rect width="900" height="240" fill="url(#C_fog)" />
</svg>
