<?xml version="1.0" standalone="no"?><!DOCTYPE svg PUBLIC "-//W3C//DTD SVG 1.1//EN" "http://www.w3.org/Graphics/SVG/1.1/DTD/svg11.dtd"><svg t="1776257300861" class="icon" viewBox="0 0 1049 1024" version="1.1" xmlns="http://www.w3.org/2000/svg" p-id="8173" width="65.5625" height="64" xmlns:xlink="http://www.w3.org/1999/xlink"><path d="M524.712986 0q107.255961 0 203.996632 41.009632 94.637613 39.958103 167.193116 112.513606t112.513606 167.193116q41.009632 96.740671 41.009632 203.996632 0 113.565135-46.267277 216.61498-45.215748 99.895258-126.709248 173.50229t-185.594874 108.30749q-17.875994 3.154587-28.391284-5.257645-7.360703-8.412232-7.360703-19.979052v-144.059477q0-34.700458-10.515291-60.988683-9.463761-23.133639-25.236696-36.803516 69.400916-7.360703 114.616664-27.339755 58.885626-26.288226 89.379967-77.813148 36.803516-58.885626 36.803517-153.523239 0-80.967735-54.67951-140.90489 8.412232-21.030581 10.51529-47.318806 3.154587-45.215748-15.772935-92.534555-18.927523-5.257645-56.782568 8.412232-26.288226 9.463761-59.937154 29.442813-27.339755 15.772935-27.339755 16.824465-64.143271-17.875994-131.441129-17.875994t-131.441129 17.875994l-27.339755-16.824465q-33.648929-19.979052-59.937154-29.442813-36.803516-13.669877-56.782568-8.412232-18.927523 47.318806-15.772935 92.534555 2.103058 26.288226 10.51529 47.318806-54.67951 59.937155-54.67951 140.90489 0 94.637613 36.803516 153.523239 30.494342 50.473393 89.379968 77.813148 45.215748 19.979052 113.565135 27.339755-27.339755 25.236697-33.648929 70.452445-35.751987 16.824464-70.452445 13.669877-51.524922-4.206116-82.019264-56.782568-12.618348-22.08211-33.648929-36.803516-14.721406-9.463761-32.5974-14.721406-9.463761-3.154587-14.721406-3.154587-31.545871 0-19.979052 15.772935 5.257645 8.412232 16.824465 16.824465 22.08211 9.463761 42.061161 44.164219 10.51529 16.824464 15.772935 32.5974 13.669877 41.009632 59.937155 57.834097 32.5974 11.566819 78.864677 8.412232 22.08211-1.051529 38.906574-4.206116l1.051529 97.792199q0 11.566819-8.412232 19.979052-10.51529 8.412232-28.391284 5.257645-104.101374-34.700458-185.594874-108.30749T46.267277 741.327966q-46.267277-103.049845-46.267277-216.61498 0-107.255961 41.009632-203.996632 39.958103-94.637613 112.513606-167.193116t167.193116-112.513606q97.7922-41.009632 203.996632-41.009632z m-325.973999 753.946315q2.103058-5.257645-4.731881-7.886468t-8.937997 1.577293q-2.103058 4.206116 4.206116 7.360704 3.154587 2.103058 5.78341 1.577293t3.680352-2.628822z m21.03058 23.133638q2.103058-2.103058 1.577294-5.257645t-3.154587-5.78341q-2.628823-2.628823-5.78341-3.154587t-5.257645 1.051529q-2.103058 1.577294-1.577294 4.731881t3.154587 5.78341q2.628823 2.628823 5.78341 3.680351t5.257645-1.051529z m21.030581 30.494342q2.103058-2.103058 2.103058-5.78341t-2.103058-7.360703q-2.103058-3.680352-5.78341-4.73188t-6.309174 0.525764q-2.628823 1.577294-2.628823 5.257645t2.628823 7.360703q2.628823 3.680352 6.309174 5.257646t5.78341-0.525765z m28.391284 28.391284q2.103058-1.051529 1.051529-5.257645t-4.206116-7.360704q-3.154587-3.154587-7.360704-3.680351t-6.309174 1.577293q-2.103058 2.103058-1.577293 6.309175t4.206116 7.360703q3.680352 3.154587 7.886468 3.680351t6.309174-2.628822z m38.906574 17.875993q1.051529-3.154587-1.577294-6.309174t-6.834938-4.73188q-4.206116-1.577294-8.412233 0t-5.257645 4.73188q-1.051529 3.154587 1.577294 6.309174t6.834938 4.206116q4.206116 1.051529 8.412233 0t5.257645-4.206116z m43.11269 3.154587q0-3.154587-3.680352-5.783409t-8.412232-2.103058q-4.731881 0.525765-7.886468 2.628822t-3.154587 5.257645q0 3.154587 3.680352 5.78341t8.412232 2.103058q4.731881-0.525765 7.886468-2.628822t3.154587-5.257646z m39.958103-7.360703q-1.051529-2.103058-4.73188-4.206116t-8.412233-1.051529q-4.731881 1.051529-7.360703 3.680352t-2.103058 5.783409q0.525765 3.154587 4.206116 5.257646t8.412232 1.051529q4.731881-1.051529 7.360704-4.206117t2.628822-6.309174z" p-id="8174"></path></svg>